Coordinates
version=1
nRows=14
nColumns=36
inDegrees=yes

Units are S.I. units (second, meters, Newtons, ...)
If the header above contains a line with 'inDegrees', this indicates whether rotational values are in degrees (yes) or radians (no).

endheader
time	pelvis_tilt	pelvis_list	pelvis_rotation	pelvis_tx	pelvis_ty	pelvis_tz	hip_flexion_r	hip_adduction_r	hip_rotation_r	knee_angle_r	knee_angle_r_beta	ankle_angle_r	subtalar_angle_r	mtp_angle_r	hip_flexion_l	hip_adduction_l	hip_rotation_l	knee_angle_l	knee_angle_l_beta	ankle_angle_l	subtalar_angle_l	mtp_angle_l	lumbar_extension	lumbar_bending	lumbar_rotation	arm_flex_r	arm_add_r	arm_rot_r	elbow_flex_r	pro_sup_r	arm_flex_l	arm_add_l	arm_rot_l	elbow_flex_l	pro_sup_l
      2.26666670	    -15.50508384	     -0.80338811	      0.49681579	      0.09721543	      1.07107492	      0.07352888	     50.69302029	      4.01753277	      3.36343437	     63.46180643	      1.10761747	     36.94044340	     -7.50930154	     -7.49999987	     55.58590326	     -2.09940584	      0.88079768	     73.63960692	      1.28525360	     27.69428269	    -16.56114077	     -7.49999987	    -19.75159023	      2.88488743	     -0.51032023	     -2.57263215	    -10.11434608	    -13.74818073	     20.72406893	     83.38978880	     -4.64556782	     -3.42472199	     -8.73184262	     18.31236994	     83.68256015
      2.28333330	    -15.46185436	     -0.99693788	      0.62219347	      0.10757182	      1.05976357	      0.07429633	     51.79241612	      4.38845909	      3.38415753	     66.94093215	      1.16833967	     38.31361954	     -7.85990652	     -7.49999987	     56.48438208	     -2.28118053	      1.46969927	     76.33086679	      1.33222495	     27.87452764	    -16.97258947	     -7.49999987	    -20.66907608	      2.86789278	     -0.25044704	      2.38071900	     -8.91605644	    -13.40570012	     22.50350961	     83.15580195	      1.13445723	     -2.76391906	     -8.29443467	     20.37713862	     83.38931449
      2.30000000	    -14.32217284	     -1.15905358	      0.99392429	      0.12487991	      1.05277724	      0.07785819	     50.44322416	      4.89020414	      3.44758716	     69.51966722	      1.21334709	     40.69867721	     -6.88112853	     -7.49999987	     55.03646850	     -2.36878955	      2.01275314	     78.01000059	      1.36153136	     28.97428115	    -15.82534031	     -7.49999987	    -21.85733166	      2.72932418	     -0.15489481	      7.66177117	     -7.75979791	     -9.82224858	     23.29098652	     86.15289682	      7.46908815	     -3.24604006	     -0.96843003	     22.84900792	     85.58855106
      2.31666670	    -14.07126902	     -1.14575571	      1.05117520	      0.13362207	      1.04455048	      0.06668866	     50.08534284	      5.01015348	      3.57002584	     71.61370113	      1.24989487	     42.18810349	     -6.26012605	     -7.49999987	     54.34551520	     -1.82945108	      2.19116997	     79.39822701	      1.38576048	     30.40860718	    -15.79134698	     -7.49999987	    -21.73119090	      2.89235697	      0.06220399	     12.72210739	     -7.20584332	     -8.32093213	     25.62678760	     91.58676828	     13.83765750	     -2.34341510	      2.65609934	     26.22890439	     87.43782501
      2.33333330	    -13.63556495	     -0.96226050	      1.26613274	      0.12159097	      1.05685376	      0.06049875	     49.68662455	      4.74133626	      4.08974653	     72.09070242	      1.25822012	     41.91809409	     -7.38393995	     -7.49999987	     53.00664852	     -0.53710523	      2.21835287	     78.54943283	      1.37094623	     29.32528742	    -18.36484797	     -7.49999987	    -22.60123095	      3.06318114	      0.48095769	     21.19029626	     -7.30910665	     -2.91939167	     26.70403733	     91.21643242	     24.44025623	     -1.27144140	      7.95630590	     29.67235770	     87.33249712
      2.35000000	    -13.05309213	     -0.95235592	      1.32304824	      0.11254364	      1.06199845	      0.07359181	     48.79384711	      5.15482711	      4.16720604	     71.28932492	      1.24423344	     41.69060131	     -7.01954644	     -7.49999987	     51.63289166	     -0.06910168	      2.72602249	     76.61140711	      1.33712130	     28.73329834	    -19.46119156	     -7.49999987	    -23.82736775	      2.44581662	      1.03838991	     30.71647437	     -5.56591386	     -0.36126874	     30.28977841	     88.30134135	     36.79137785	     -0.47949133	      9.42786234	     33.60427884	     84.77973123
      2.36666670	    -13.04846553	     -0.79181649	      1.58981757	      0.12488341	      1.06027707	      0.07211159	     47.92196545	      5.21619459	      4.69082379	     71.13660700	      1.24156801	     40.86624079	     -8.05116351	     -7.49999987	     50.33063623	      0.28798701	      2.88440346	     75.17926472	      1.31212570	     29.63797669	    -18.80134647	     -7.49999987	    -23.00511378	      1.75608774	      0.61687894	     38.39202434	     -4.46529052	      5.09525729	     36.06289811	     89.60488077	     47.17763316	     -0.65221696	     14.24078248	     37.69384386	     86.59329636
      2.38333330	    -13.56398254	     -0.50906455	      1.61363019	      0.13360745	      1.05126353	      0.07424317	     47.57812682	      5.18699584	      5.09462194	     70.67933286	      1.23358707	     40.71016476	     -8.98335477	     -7.49999987	     49.87953875	      0.29310694	      3.02554360	     73.89632454	      1.28973417	     31.06794152	    -19.16335318	     -7.49999987	    -20.51393933	      0.85292543	     -0.32493531	     45.98536439	     -2.04442773	      6.94118552	     43.85858105	     88.73240464	     56.70849895	     -0.79835124	     15.43829240	     42.59524695	     85.98811955
      2.40000000	    -14.05425121	     -0.50690109	      1.56717813	      0.14687237	      1.05270895	      0.07186763	     47.20952726	      5.24542511	      5.16846778	     69.75447815	      1.21744531	     40.84380645	    -10.82890799	     -7.49999987	     49.19759569	      0.27638891	      3.32880532	     72.71429292	      1.26910382	     31.89001800	    -19.15000987	     -7.49999987	    -17.52492089	      0.36412943	     -0.26297355	     51.88819263	     -1.61493308	      8.11183798	     53.25502668	     89.23092040	     64.20299970	     -1.38586878	     16.64359585	     49.43852885	     86.48338476
      2.41666670	    -14.83852100	     -0.63592897	      1.84141644	      0.15865776	      1.06350300	      0.07157007	     46.07941158	      5.21711479	      5.18467238	     67.71102645	      1.18178035	     40.68034027	    -10.97121131	     -7.49999987	     48.18965397	      0.55609653	      3.82478845	     70.72559714	      1.23439454	     32.22699730	    -18.11913131	     -7.49999987	    -13.97135931	      0.04656306	      0.68391102	     58.15901611	     -1.87800012	      9.81257486	     61.12606492	     84.91862501	     68.88365763	     -1.86951062	     16.22929043	     57.28602098	     81.98144126
      2.43333330	    -15.39694535	     -0.96043763	      1.82012247	      0.16808429	      1.07695173	      0.07253582	     43.94493606	      5.43201145	      5.08714469	     63.64877132	      1.11088062	     39.66484847	    -11.58222083	     -7.49999987	     46.52658927	      0.37995880	      4.11248759	     68.05512301	      1.18778597	     31.40796931	    -18.17547922	     -7.49999987	    -10.96794743	      0.10579389	      0.63172173	     65.50923222	     -1.69679791	     14.52578203	     61.87361804	     85.33332560	     75.61920815	     -2.71228071	     17.34510138	     60.29009742	     81.00070918
      2.45000000	    -15.50791957	     -1.54367642	      1.70132299	      0.18171795	      1.09825866	      0.07262872	     40.34583004	      5.97428946	      5.12342759	     57.69894148	      1.00703650	     37.32157721	    -12.50016921	     -7.49999987	     43.20684471	     -0.14995380	      4.44609136	     63.53040733	      1.10881478	     29.87232310	    -17.72963017	     -7.49999987	     -8.23818269	      0.38977722	     -0.93133699	     68.10045732	     -2.57187780	     13.56017704	     69.33282823	     82.33075239	     80.35137858	     -8.46653117	     20.35062025	     65.99341794	     78.29227359
      2.46666670	    -15.87859155	     -1.61045205	      1.83902006	      0.19868871	      1.11742037	      0.07199039	     36.46246175	      5.78315936	      5.21806674	     51.25984843	      0.89465313	     34.29741218	    -11.59082898	     -7.49999987	     39.72214190	     -0.29217876	      4.18074607	     57.82930225	      1.00931173	     27.66048621	    -16.91974987	     -7.49999987	     -5.47462850	      0.38307273	      0.01865358	     73.22382922	     -4.55791692	     15.78216442	     69.46293694	     93.72866146	     82.63839585	    -11.57866750	     22.19970001	     71.48163279	     85.28886728
      2.48333330	    -15.91983039	     -1.69871828	      2.11157568	      0.21792839	      1.14299001	      0.07163211	     31.42051926	      5.33824033	      4.92130473	     43.14504322	      0.75302306	     29.91092229	    -11.44829579	     -7.49999987	     35.44580876	     -0.61406310	      3.82298221	     50.74593073	      0.88568357	     24.18230547	    -16.89099615	     -7.49999987	     -3.01923072	      0.43222407	      0.31142868	     77.39534094	     -7.35966357	     18.15142489	     72.65790953	     92.95317470	     85.10516958	    -14.17202080	     24.22688265	     75.82745954	     85.45001990
